<?xml version="1.0" encoding="UTF-8" standalone="no"?>
<!-- Created with Inkscape (http://www.inkscape.org/) -->

<svg
   xmlns:dc="http://purl.org/dc/elements/1.1/"
   xmlns:cc="http://creativecommons.org/ns#"
   xmlns:rdf="http://www.w3.org/1999/02/22-rdf-syntax-ns#"
   xmlns:svg="http://www.w3.org/2000/svg"
   xmlns="http://www.w3.org/2000/svg"
   xmlns:sodipodi="http://sodipodi.sourceforge.net/DTD/sodipodi-0.dtd"
   xmlns:inkscape="http://www.inkscape.org/namespaces/inkscape"
   width="157.81329mm"
   height="101.2147mm"
   viewBox="0 0 157.81329 101.2147"
   version="1.1"
   id="svg8"
   inkscape:version="0.92.4 (5da689c313, 2019-01-14)"
   sodipodi:docname="nimbus.svg">
  <defs
     id="defs2" />
  <sodipodi:namedview
     id="base"
     pagecolor="#ffffff"
     bordercolor="#666666"
     borderopacity="1.0"
     inkscape:pageopacity="0.0"
     inkscape:pageshadow="2"
     inkscape:zoom="1.979899"
     inkscape:cx="87.80442"
     inkscape:cy="300.63585"
     inkscape:document-units="mm"
     inkscape:current-layer="layer1"
     showgrid="false"
     inkscape:window-width="2736"
     inkscape:window-height="1699"
     inkscape:window-x="-13"
     inkscape:window-y="-13"
     inkscape:window-maximized="1"
     fit-margin-top="0"
     fit-margin-left="0"
     fit-margin-right="0"
     fit-margin-bottom="0" />
  <metadata
     id="metadata5">
    <rdf:RDF>
      <cc:Work
         rdf:about="">
        <dc:format>image/svg+xml</dc:format>
        <dc:type
           rdf:resource="http://purl.org/dc/dcmitype/StillImage" />
        <dc:title></dc:title>
      </cc:Work>
    </rdf:RDF>
  </metadata>
  <g
     inkscape:label="Layer 1"
     inkscape:groupmode="layer"
     id="layer1"
     transform="translate(-38.802253,-55.486246)">
    <g
       id="g4721"
       transform="matrix(1.2162875,0,0,1.1976603,-8.2020166,23.44897)">
      <g
         id="g4695"
         style="fill:#d4aa00;stroke:none;stroke-opacity:1"
         transform="translate(0.33408685,-1.8708868)">
        <g
           id="g4708">
          <path
             style="fill:#deac00;fill-opacity:1;stroke:none;stroke-width:0.26458332;stroke-opacity:1"
             d="m 101.66211,28.621094 c -12.044968,-0.05161 -24.529431,6.141846 -30.029298,17.177734 -9.7855,-2.079199 -19.264303,5.986971 -20.777343,15.164063 -11.70327,3.390839 -16.906041,19.503373 -8.183594,28.490234 5.138277,5.8755 13.794741,8.134817 21.224609,5.9375 3.75779,9.748995 16.094028,14.785685 25.582032,10.384765 10.568484,9.79601 28.670564,9.80038 39.275394,0.0566 12.28424,10.61516 33.86561,4.39781 38.22265,-11.357421 C 170.38447,84.450291 165.43122,72.927288 156.7793,67.496094 157.05758,53.830362 143.95859,42.31032 130.50977,43.507812 124.48305,33.788093 112.87199,28.58718 101.66211,28.621094 Z"
             id="ellipse4693"
             inkscape:connector-curvature="0" />
        </g>
      </g>
      <g
         transform="translate(0.33408685,-1.8708868)"
         style="stroke:none;stroke-opacity:1"
         id="g4663">
        <path
           style="fill:#373e48;stroke:none;stroke-width:0.26458332;stroke-opacity:1"
           d="M 132.48066,57.032368 A 30.757813,26.411085 0 0 1 101.72285,83.443453 30.757813,26.411085 0 0 1 70.965034,57.032368 30.757813,26.411085 0 0 1 101.72285,30.621283 30.757813,26.411085 0 0 1 132.48066,57.032368 Z"
           id="path4634"
           inkscape:connector-curvature="0" />
        <path
           style="fill:#373e48;stroke:none;stroke-width:0.26458332;stroke-opacity:1"
           d="M 154.78124,67.568451 A 22.773064,22.111607 0 0 1 132.00818,89.680058 22.773064,22.111607 0 0 1 109.23512,67.568451 22.773064,22.111607 0 0 1 132.00818,45.456844 22.773064,22.111607 0 0 1 154.78124,67.568451 Z"
           id="path4636"
           inkscape:connector-curvature="0" />
        <path
           style="fill:#373e48;stroke:none;stroke-width:0.26458332;stroke-opacity:1"
           d="M 166.02603,87.601196 A 22.064362,21.544643 0 0 1 143.96167,109.14584 22.064362,21.544643 0 0 1 121.89731,87.601196 22.064362,21.544643 0 0 1 143.96167,66.056553 22.064362,21.544643 0 0 1 166.02603,87.601196 Z"
           id="path4638"
           inkscape:connector-curvature="0" />
        <path
           style="fill:#373e48;stroke:none;stroke-width:0.26458332;stroke-opacity:1"
           d="M 84.383185,63.268974 A 15.686011,15.733259 0 0 1 68.697174,79.002234 15.686011,15.733259 0 0 1 53.011163,63.268974 15.686011,15.733259 0 0 1 68.697174,47.535715 15.686011,15.733259 0 0 1 84.383185,63.268974 Z"
           id="path4646"
           inkscape:connector-curvature="0" />
        <path
           style="fill:#373e48;stroke:none;stroke-width:0.26458332;stroke-opacity:1"
           d="M 75.878717,77.962791 A 17.812128,16.252975 0 0 1 58.066589,94.215767 17.812128,16.252975 0 0 1 40.254461,77.962791 17.812128,16.252975 0 0 1 58.066589,61.709816 17.812128,16.252975 0 0 1 75.878717,77.962791 Z"
           id="path4648"
           inkscape:connector-curvature="0" />
        <path
           style="fill:#373e48;stroke:none;stroke-width:0.26458332;stroke-opacity:1"
           d="M 99.313238,87.790176 A 17.481398,17.575893 0 0 1 81.831841,105.36607 17.481398,17.575893 0 0 1 64.350443,87.790176 17.481398,17.575893 0 0 1 81.831841,70.214283 17.481398,17.575893 0 0 1 99.313238,87.790176 Z"
           id="path4650"
           inkscape:connector-curvature="0" />
        <path
           style="fill:#373e48;stroke:none;stroke-width:0.26458332;stroke-opacity:1"
           d="M 133.52008,91.144714 A 24.379465,19.985491 0 0 1 109.14062,111.13021 24.379465,19.985491 0 0 1 84.761152,91.144714 24.379465,19.985491 0 0 1 109.14062,71.159224 24.379465,19.985491 0 0 1 133.52008,91.144714 Z"
           id="path4652"
           inkscape:connector-curvature="0" />
      </g>
    </g>
    <g
       aria-label="1"
       transform="matrix(0.3218094,0,0,0.31688095,0.11252071,-29.41443)"
       style="font-style:normal;font-weight:normal;font-size:40px;line-height:1.25;font-family:sans-serif;letter-spacing:0px;word-spacing:0px;fill:#b76a12;fill-opacity:1;stroke:none"
       id="flowRoot4723">
      <path
         d="m 299.0293,367.58501 h -15.74219 v -2.96875 h 6.05469 v -19.49219 h -6.05469 v -2.65625 q 1.23047,0 2.63672,-0.19531 1.40625,-0.21484 2.1289,-0.60547 0.89844,-0.48828 1.40625,-1.23047 0.52735,-0.76172 0.60547,-2.03125 h 3.02735 v 26.21094 h 5.9375 z"
         id="path5350"
         inkscape:connector-curvature="0" />
    </g>
    <g
       aria-label="1"
       transform="matrix(0.3218094,0,0,0.31688095,67.434707,-4.7804817)"
       style="font-style:normal;font-weight:normal;font-size:40px;line-height:1.25;font-family:sans-serif;letter-spacing:0px;word-spacing:0px;fill:#c27115;fill-opacity:1;stroke:none"
       id="flowRoot4723-1">
      <path
         d="m 299.0293,367.58501 h -15.74219 v -2.96875 h 6.05469 v -19.49219 h -6.05469 v -2.65625 q 1.23047,0 2.63672,-0.19531 1.40625,-0.21484 2.1289,-0.60547 0.89844,-0.48828 1.40625,-1.23047 0.52735,-0.76172 0.60547,-2.03125 h 3.02735 v 26.21094 h 5.9375 z"
         id="path5347"
         inkscape:connector-curvature="0" />
    </g>
    <g
       aria-label="1"
       transform="matrix(0.3218094,0,0,0.31688095,22.381391,-32.281221)"
       style="font-style:normal;font-weight:normal;font-size:40px;line-height:1.25;font-family:sans-serif;letter-spacing:0px;word-spacing:0px;fill:#a96211;fill-opacity:1;stroke:none"
       id="flowRoot4723-0">
      <path
         d="m 299.0293,367.58501 h -15.74219 v -2.96875 h 6.05469 v -19.49219 h -6.05469 v -2.65625 q 1.23047,0 2.63672,-0.19531 1.40625,-0.21484 2.1289,-0.60547 0.89844,-0.48828 1.40625,-1.23047 0.52735,-0.76172 0.60547,-2.03125 h 3.02735 v 26.21094 h 5.9375 z"
         id="path5344"
         inkscape:connector-curvature="0" />
    </g>
    <g
       aria-label="1"
       transform="matrix(0.3218094,0,0,0.31688095,-19.568763,-3.3092486)"
       style="font-style:normal;font-weight:normal;font-size:40px;line-height:1.25;font-family:sans-serif;letter-spacing:0px;word-spacing:0px;fill:#b26712;fill-opacity:1;stroke:none"
       id="flowRoot4723-6">
      <path
         d="m 299.0293,367.58501 h -15.74219 v -2.96875 h 6.05469 v -19.49219 h -6.05469 v -2.65625 q 1.23047,0 2.63672,-0.19531 1.40625,-0.21484 2.1289,-0.60547 0.89844,-0.48828 1.40625,-1.23047 0.52735,-0.76172 0.60547,-2.03125 h 3.02735 v 26.21094 h 5.9375 z"
         id="path5341"
         inkscape:connector-curvature="0" />
    </g>
    <g
       aria-label="0 "
       transform="matrix(0.3218094,0,0,0.31688095,12.72711,-18.813781)"
       style="font-style:normal;font-weight:normal;font-size:40px;line-height:1.25;font-family:sans-serif;letter-spacing:0px;word-spacing:0px;fill:#ba6c13;fill-opacity:1;stroke:none"
       id="flowRoot4723-4">
      <path
         d="m 300.65039,353.03423 q 0,7.83203 -2.46094,11.5039 -2.4414,3.65235 -7.59765,3.65235 -5.23438,0 -7.65625,-3.71094 -2.40235,-3.71094 -2.40235,-11.40625 0,-7.75391 2.44141,-11.44531 2.44141,-3.71094 7.61719,-3.71094 5.23437,0 7.63672,3.76953 2.42187,3.75 2.42187,11.34766 z m -5.13672,8.86719 q 0.6836,-1.58204 0.91797,-3.71094 0.25391,-2.14844 0.25391,-5.15625 0,-2.96875 -0.25391,-5.15625 -0.23437,-2.1875 -0.9375,-3.71094 -0.68359,-1.50391 -1.875,-2.26562 -1.17187,-0.76172 -3.02734,-0.76172 -1.83594,0 -3.04688,0.76172 -1.1914,0.76171 -1.89453,2.30468 -0.66406,1.44532 -0.91797,3.76953 -0.23437,2.32422 -0.23437,5.09766 0,3.04688 0.21484,5.09766 0.21484,2.05078 0.91797,3.67187 0.64453,1.52344 1.81641,2.32422 1.1914,0.80078 3.14453,0.80078 1.83593,0 3.04687,-0.76172 1.21094,-0.76172 1.875,-2.30468 z"
         id="path5338"
         inkscape:connector-curvature="0" />
    </g>
    <g
       aria-label="0 "
       transform="matrix(0.3218094,0,0,0.31688095,37.849612,-7.8546866)"
       style="font-style:normal;font-weight:normal;font-size:40px;line-height:1.25;font-family:sans-serif;letter-spacing:0px;word-spacing:0px;fill:#be6e13;fill-opacity:1;stroke:none"
       id="flowRoot4723-4-5">
      <path
         d="m 300.65039,353.03423 q 0,7.83203 -2.46094,11.5039 -2.4414,3.65235 -7.59765,3.65235 -5.23438,0 -7.65625,-3.71094 -2.40235,-3.71094 -2.40235,-11.40625 0,-7.75391 2.44141,-11.44531 2.44141,-3.71094 7.61719,-3.71094 5.23437,0 7.63672,3.76953 2.42187,3.75 2.42187,11.34766 z m -5.13672,8.86719 q 0.6836,-1.58204 0.91797,-3.71094 0.25391,-2.14844 0.25391,-5.15625 0,-2.96875 -0.25391,-5.15625 -0.23437,-2.1875 -0.9375,-3.71094 -0.68359,-1.50391 -1.875,-2.26562 -1.17187,-0.76172 -3.02734,-0.76172 -1.83594,0 -3.04688,0.76172 -1.1914,0.76171 -1.89453,2.30468 -0.66406,1.44532 -0.91797,3.76953 -0.23437,2.32422 -0.23437,5.09766 0,3.04688 0.21484,5.09766 0.21484,2.05078 0.91797,3.67187 0.64453,1.52344 1.81641,2.32422 1.1914,0.80078 3.14453,0.80078 1.83593,0 3.04687,-0.76172 1.21094,-0.76172 1.875,-2.30468 z"
         id="path5335"
         inkscape:connector-curvature="0" />
    </g>
    <g
       aria-label="0 "
       transform="matrix(0.3218094,0,0,0.31688095,79.225107,13.874293)"
       style="font-style:normal;font-weight:normal;font-size:40px;line-height:1.25;font-family:sans-serif;letter-spacing:0px;word-spacing:0px;fill:#b66912;fill-opacity:1;stroke:none"
       id="flowRoot4723-4-1">
      <path
         d="m 300.65039,353.03423 q 0,7.83203 -2.46094,11.5039 -2.4414,3.65235 -7.59765,3.65235 -5.23438,0 -7.65625,-3.71094 -2.40235,-3.71094 -2.40235,-11.40625 0,-7.75391 2.44141,-11.44531 2.44141,-3.71094 7.61719,-3.71094 5.23437,0 7.63672,3.76953 2.42187,3.75 2.42187,11.34766 z m -5.13672,8.86719 q 0.6836,-1.58204 0.91797,-3.71094 0.25391,-2.14844 0.25391,-5.15625 0,-2.96875 -0.25391,-5.15625 -0.23437,-2.1875 -0.9375,-3.71094 -0.68359,-1.50391 -1.875,-2.26562 -1.17187,-0.76172 -3.02734,-0.76172 -1.83594,0 -3.04688,0.76172 -1.1914,0.76171 -1.89453,2.30468 -0.66406,1.44532 -0.91797,3.76953 -0.23437,2.32422 -0.23437,5.09766 0,3.04688 0.21484,5.09766 0.21484,2.05078 0.91797,3.67187 0.64453,1.52344 1.81641,2.32422 1.1914,0.80078 3.14453,0.80078 1.83593,0 3.04687,-0.76172 1.21094,-0.76172 1.875,-2.30468 z"
         id="path5332"
         inkscape:connector-curvature="0" />
    </g>
    <g
       aria-label="0 "
       transform="matrix(0.3218094,0,0,0.31688095,-18.92676,-19.964066)"
       style="font-style:normal;font-weight:normal;font-size:40px;line-height:1.25;font-family:sans-serif;letter-spacing:0px;word-spacing:0px;fill:#ba6c13;fill-opacity:1;stroke:none"
       id="flowRoot4723-4-58">
      <path
         d="m 300.65039,353.03423 q 0,7.83203 -2.46094,11.5039 -2.4414,3.65235 -7.59765,3.65235 -5.23438,0 -7.65625,-3.71094 -2.40235,-3.71094 -2.40235,-11.40625 0,-7.75391 2.44141,-11.44531 2.44141,-3.71094 7.61719,-3.71094 5.23437,0 7.63672,3.76953 2.42187,3.75 2.42187,11.34766 z m -5.13672,8.86719 q 0.6836,-1.58204 0.91797,-3.71094 0.25391,-2.14844 0.25391,-5.15625 0,-2.96875 -0.25391,-5.15625 -0.23437,-2.1875 -0.9375,-3.71094 -0.68359,-1.50391 -1.875,-2.26562 -1.17187,-0.76172 -3.02734,-0.76172 -1.83594,0 -3.04688,0.76172 -1.1914,0.76171 -1.89453,2.30468 -0.66406,1.44532 -0.91797,3.76953 -0.23437,2.32422 -0.23437,5.09766 0,3.04688 0.21484,5.09766 0.21484,2.05078 0.91797,3.67187 0.64453,1.52344 1.81641,2.32422 1.1914,0.80078 3.14453,0.80078 1.83593,0 3.04687,-0.76172 1.21094,-0.76172 1.875,-2.30468 z"
         id="path5329"
         inkscape:connector-curvature="0" />
    </g>
    <g
       aria-label="1"
       transform="matrix(0.3218094,0,0,0.31688095,27.783193,23.39929)"
       style="font-style:normal;font-weight:normal;font-size:40px;line-height:1.25;font-family:sans-serif;letter-spacing:0px;word-spacing:0px;fill:#d17915;fill-opacity:0.92988933;stroke:none"
       id="flowRoot4723-47">
      <path
         d="m 299.0293,367.58501 h -15.74219 v -2.96875 h 6.05469 v -19.49219 h -6.05469 v -2.65625 q 1.23047,0 2.63672,-0.19531 1.40625,-0.21484 2.1289,-0.60547 0.89844,-0.48828 1.40625,-1.23047 0.52735,-0.76172 0.60547,-2.03125 h 3.02735 v 26.21094 h 5.9375 z"
         id="path5326"
         inkscape:connector-curvature="0" />
    </g>
    <g
       aria-label="1"
       transform="matrix(0.3218094,0,0,0.31688095,21.806731,-6.3648864)"
       style="font-style:normal;font-weight:normal;font-size:40px;line-height:1.25;font-family:sans-serif;letter-spacing:0px;word-spacing:0px;fill:#7e3994;fill-opacity:1;stroke:none"
       id="flowRoot4723-47-4">
      <path
         d="m 299.0293,367.58501 h -15.74219 v -2.96875 h 6.05469 v -19.49219 h -6.05469 v -2.65625 q 1.23047,0 2.63672,-0.19531 1.40625,-0.21484 2.1289,-0.60547 0.89844,-0.48828 1.40625,-1.23047 0.52735,-0.76172 0.60547,-2.03125 h 3.02735 v 26.21094 h 5.9375 z"
         id="path5323"
         inkscape:connector-curvature="0" />
    </g>
    <g
       aria-label="0 "
       transform="matrix(0.3218094,0,0,0.31688095,52.331036,14.892839)"
       style="font-style:normal;font-weight:normal;font-size:40px;line-height:1.25;font-family:sans-serif;letter-spacing:0px;word-spacing:0px;fill:#bc6d13;fill-opacity:1;stroke:none"
       id="flowRoot4723-4-5-9">
      <path
         d="m 300.65039,353.03423 q 0,7.83203 -2.46094,11.5039 -2.4414,3.65235 -7.59765,3.65235 -5.23438,0 -7.65625,-3.71094 -2.40235,-3.71094 -2.40235,-11.40625 0,-7.75391 2.44141,-11.44531 2.44141,-3.71094 7.61719,-3.71094 5.23437,0 7.63672,3.76953 2.42187,3.75 2.42187,11.34766 z m -5.13672,8.86719 q 0.6836,-1.58204 0.91797,-3.71094 0.25391,-2.14844 0.25391,-5.15625 0,-2.96875 -0.25391,-5.15625 -0.23437,-2.1875 -0.9375,-3.71094 -0.68359,-1.50391 -1.875,-2.26562 -1.17187,-0.76172 -3.02734,-0.76172 -1.83594,0 -3.04688,0.76172 -1.1914,0.76171 -1.89453,2.30468 -0.66406,1.44532 -0.91797,3.76953 -0.23437,2.32422 -0.23437,5.09766 0,3.04688 0.21484,5.09766 0.21484,2.05078 0.91797,3.67187 0.64453,1.52344 1.81641,2.32422 1.1914,0.80078 3.14453,0.80078 1.83593,0 3.04687,-0.76172 1.21094,-0.76172 1.875,-2.30468 z"
         id="path5320"
         inkscape:connector-curvature="0" />
    </g>
    <g
       aria-label="0 "
       transform="matrix(0.3218094,0,0,0.31688095,11.874997,9.4605936)"
       style="font-style:normal;font-weight:normal;font-size:40px;line-height:1.25;font-family:sans-serif;letter-spacing:0px;word-spacing:0px;fill:#ad6411;fill-opacity:1;stroke:none"
       id="flowRoot4723-4-3">
      <path
         d="m 300.65039,353.03423 q 0,7.83203 -2.46094,11.5039 -2.4414,3.65235 -7.59765,3.65235 -5.23438,0 -7.65625,-3.71094 -2.40235,-3.71094 -2.40235,-11.40625 0,-7.75391 2.44141,-11.44531 2.44141,-3.71094 7.61719,-3.71094 5.23437,0 7.63672,3.76953 2.42187,3.75 2.42187,11.34766 z m -5.13672,8.86719 q 0.6836,-1.58204 0.91797,-3.71094 0.25391,-2.14844 0.25391,-5.15625 0,-2.96875 -0.25391,-5.15625 -0.23437,-2.1875 -0.9375,-3.71094 -0.68359,-1.50391 -1.875,-2.26562 -1.17187,-0.76172 -3.02734,-0.76172 -1.83594,0 -3.04688,0.76172 -1.1914,0.76171 -1.89453,2.30468 -0.66406,1.44532 -0.91797,3.76953 -0.23437,2.32422 -0.23437,5.09766 0,3.04688 0.21484,5.09766 0.21484,2.05078 0.91797,3.67187 0.64453,1.52344 1.81641,2.32422 1.1914,0.80078 3.14453,0.80078 1.83593,0 3.04687,-0.76172 1.21094,-0.76172 1.875,-2.30468 z"
         id="path5317"
         inkscape:connector-curvature="0" />
    </g>
    <g
       aria-label="1"
       transform="matrix(0.3218094,0,0,0.31688095,-1.9841775,-3.3092488)"
       style="font-style:normal;font-weight:normal;font-size:40px;line-height:1.25;font-family:sans-serif;letter-spacing:0px;word-spacing:0px;fill:#b56912;fill-opacity:1;stroke:none"
       id="flowRoot4723-6-0">
      <path
         d="m 299.0293,367.58501 h -15.74219 v -2.96875 h 6.05469 v -19.49219 h -6.05469 v -2.65625 q 1.23047,0 2.63672,-0.19531 1.40625,-0.21484 2.1289,-0.60547 0.89844,-0.48828 1.40625,-1.23047 0.52735,-0.76172 0.60547,-2.03125 h 3.02735 v 26.21094 h 5.9375 z"
         id="path5314"
         inkscape:connector-curvature="0" />
    </g>
    <g
       aria-label="1"
       transform="matrix(0.3218094,0,0,0.31688095,52.838347,-22.208934)"
       style="font-style:normal;font-weight:normal;font-size:40px;line-height:1.25;font-family:sans-serif;letter-spacing:0px;word-spacing:0px;fill:#7e3994;fill-opacity:1;stroke:none"
       id="flowRoot4723-47-4-2">
      <path
         d="m 299.0293,367.58501 h -15.74219 v -2.96875 h 6.05469 v -19.49219 h -6.05469 v -2.65625 q 1.23047,0 2.63672,-0.19531 1.40625,-0.21484 2.1289,-0.60547 0.89844,-0.48828 1.40625,-1.23047 0.52735,-0.76172 0.60547,-2.03125 h 3.02735 v 26.21094 h 5.9375 z"
         id="path5311"
         inkscape:connector-curvature="0" />
    </g>
    <g
       aria-label="1"
       transform="matrix(0.3218094,0,0,0.31688095,-37.957871,-3.1960769)"
       style="font-style:normal;font-weight:normal;font-size:40px;line-height:1.25;font-family:sans-serif;letter-spacing:0px;word-spacing:0px;fill:#7e3994;fill-opacity:1;stroke:none"
       id="flowRoot4723-47-4-2-1">
      <path
         d="m 299.0293,367.58501 h -15.74219 v -2.96875 h 6.05469 v -19.49219 h -6.05469 v -2.65625 q 1.23047,0 2.63672,-0.19531 1.40625,-0.21484 2.1289,-0.60547 0.89844,-0.48828 1.40625,-1.23047 0.52735,-0.76172 0.60547,-2.03125 h 3.02735 v 26.21094 h 5.9375 z"
         id="path5308"
         inkscape:connector-curvature="0" />
    </g>
    <g
       aria-label="0"
       transform="matrix(0.3218094,0,0,0.31688095,31.920742,7.4420702)"
       style="font-style:normal;font-weight:normal;font-size:40px;line-height:1.25;font-family:sans-serif;letter-spacing:0px;word-spacing:0px;fill:#7e3994;fill-opacity:1;stroke:none"
       id="flowRoot4723-47-4-2-1-1">
      <path
         d="m 300.65039,353.03423 q 0,7.83203 -2.46094,11.5039 -2.4414,3.65235 -7.59765,3.65235 -5.23438,0 -7.65625,-3.71094 -2.40235,-3.71094 -2.40235,-11.40625 0,-7.75391 2.44141,-11.44531 2.44141,-3.71094 7.61719,-3.71094 5.23437,0 7.63672,3.76953 2.42187,3.75 2.42187,11.34766 z m -5.13672,8.86719 q 0.6836,-1.58204 0.91797,-3.71094 0.25391,-2.14844 0.25391,-5.15625 0,-2.96875 -0.25391,-5.15625 -0.23437,-2.1875 -0.9375,-3.71094 -0.68359,-1.50391 -1.875,-2.26562 -1.17187,-0.76172 -3.02734,-0.76172 -1.83594,0 -3.04688,0.76172 -1.1914,0.76171 -1.89453,2.30468 -0.66406,1.44532 -0.91797,3.76953 -0.23437,2.32422 -0.23437,5.09766 0,3.04688 0.21484,5.09766 0.21484,2.05078 0.91797,3.67187 0.64453,1.52344 1.81641,2.32422 1.1914,0.80078 3.14453,0.80078 1.83593,0 3.04687,-0.76172 1.21094,-0.76172 1.875,-2.30468 z"
         id="path5305"
         inkscape:connector-curvature="0" />
    </g>
    <g
       aria-label="0"
       transform="matrix(0.3218094,0,0,0.31688095,-9.5023419,15.911385)"
       style="font-style:normal;font-weight:normal;font-size:40px;line-height:1.25;font-family:sans-serif;letter-spacing:0px;word-spacing:0px;fill:#7e3994;fill-opacity:1;stroke:none"
       id="flowRoot4723-47-4-2-1-1-4">
      <path
         d="m 300.65039,353.03423 q 0,7.83203 -2.46094,11.5039 -2.4414,3.65235 -7.59765,3.65235 -5.23438,0 -7.65625,-3.71094 -2.40235,-3.71094 -2.40235,-11.40625 0,-7.75391 2.44141,-11.44531 2.44141,-3.71094 7.61719,-3.71094 5.23437,0 7.63672,3.76953 2.42187,3.75 2.42187,11.34766 z m -5.13672,8.86719 q 0.6836,-1.58204 0.91797,-3.71094 0.25391,-2.14844 0.25391,-5.15625 0,-2.96875 -0.25391,-5.15625 -0.23437,-2.1875 -0.9375,-3.71094 -0.68359,-1.50391 -1.875,-2.26562 -1.17187,-0.76172 -3.02734,-0.76172 -1.83594,0 -3.04688,0.76172 -1.1914,0.76171 -1.89453,2.30468 -0.66406,1.44532 -0.91797,3.76953 -0.23437,2.32422 -0.23437,5.09766 0,3.04688 0.21484,5.09766 0.21484,2.05078 0.91797,3.67187 0.64453,1.52344 1.81641,2.32422 1.1914,0.80078 3.14453,0.80078 1.83593,0 3.04687,-0.76172 1.21094,-0.76172 1.875,-2.30468 z"
         id="path5302"
         inkscape:connector-curvature="0" />
    </g>
    <g
       aria-label="0"
       transform="matrix(0.3218094,0,0,0.31688095,10.725677,-42.145734)"
       style="font-style:normal;font-weight:normal;font-size:40px;line-height:1.25;font-family:sans-serif;letter-spacing:0px;word-spacing:0px;fill:#7e3994;fill-opacity:1;stroke:none"
       id="flowRoot4723-47-4-2-1-1-6">
      <path
         d="m 300.65039,353.03423 q 0,7.83203 -2.46094,11.5039 -2.4414,3.65235 -7.59765,3.65235 -5.23438,0 -7.65625,-3.71094 -2.40235,-3.71094 -2.40235,-11.40625 0,-7.75391 2.44141,-11.44531 2.44141,-3.71094 7.61719,-3.71094 5.23437,0 7.63672,3.76953 2.42187,3.75 2.42187,11.34766 z m -5.13672,8.86719 q 0.6836,-1.58204 0.91797,-3.71094 0.25391,-2.14844 0.25391,-5.15625 0,-2.96875 -0.25391,-5.15625 -0.23437,-2.1875 -0.9375,-3.71094 -0.68359,-1.50391 -1.875,-2.26562 -1.17187,-0.76172 -3.02734,-0.76172 -1.83594,0 -3.04688,0.76172 -1.1914,0.76171 -1.89453,2.30468 -0.66406,1.44532 -0.91797,3.76953 -0.23437,2.32422 -0.23437,5.09766 0,3.04688 0.21484,5.09766 0.21484,2.05078 0.91797,3.67187 0.64453,1.52344 1.81641,2.32422 1.1914,0.80078 3.14453,0.80078 1.83593,0 3.04687,-0.76172 1.21094,-0.76172 1.875,-2.30468 z"
         id="path5299"
         inkscape:connector-curvature="0" />
    </g>
    <g
       aria-label="1"
       transform="matrix(0.3218094,0,0,0.31688095,67.319775,25.662724)"
       style="font-style:normal;font-weight:normal;font-size:40px;line-height:1.25;font-family:sans-serif;letter-spacing:0px;word-spacing:0px;fill:#7e3994;fill-opacity:1;stroke:none"
       id="flowRoot4723-47-4-2-2">
      <path
         d="m 299.0293,367.58501 h -15.74219 v -2.96875 h 6.05469 v -19.49219 h -6.05469 v -2.65625 q 1.23047,0 2.63672,-0.19531 1.40625,-0.21484 2.1289,-0.60547 0.89844,-0.48828 1.40625,-1.23047 0.52735,-0.76172 0.60547,-2.03125 h 3.02735 v 26.21094 h 5.9375 z"
         id="path5296"
         inkscape:connector-curvature="0" />
    </g>
  </g>
</svg>
