<?xml version="1.0" encoding="UTF-8" standalone="no"?>
<!-- Created with Inkscape (http://www.inkscape.org/) -->

<svg
   xmlns:dc="http://purl.org/dc/elements/1.1/"
   xmlns:cc="http://creativecommons.org/ns#"
   xmlns:rdf="http://www.w3.org/1999/02/22-rdf-syntax-ns#"
   xmlns:svg="http://www.w3.org/2000/svg"
   xmlns="http://www.w3.org/2000/svg"
   xmlns:sodipodi="http://sodipodi.sourceforge.net/DTD/sodipodi-0.dtd"
   xmlns:inkscape="http://www.inkscape.org/namespaces/inkscape"
   width="157.81329mm"
   height="101.2147mm"
   viewBox="0 0 157.81329 101.2147"
   version="1.1"
   id="svg1619"
   sodipodi:docname="usenimbus.svg"
   inkscape:version="0.92.4 (5da689c313, 2019-01-14)">
  <defs
     id="defs1613" />
  <sodipodi:namedview
     id="base"
     pagecolor="#ffffff"
     bordercolor="#666666"
     borderopacity="1.0"
     inkscape:pageopacity="0.0"
     inkscape:pageshadow="2"
     inkscape:zoom="2.8"
     inkscape:cx="296.02177"
     inkscape:cy="165.77726"
     inkscape:document-units="mm"
     inkscape:current-layer="layer1"
     showgrid="false"
     fit-margin-top="0"
     fit-margin-left="0"
     fit-margin-right="0"
     fit-margin-bottom="0"
     inkscape:window-width="2736"
     inkscape:window-height="1699"
     inkscape:window-x="-13"
     inkscape:window-y="-13"
     inkscape:window-maximized="1" />
  <metadata
     id="metadata1616">
    <rdf:RDF>
      <cc:Work
         rdf:about="">
        <dc:format>image/svg+xml</dc:format>
        <dc:type
           rdf:resource="http://purl.org/dc/dcmitype/StillImage" />
        <dc:title></dc:title>
      </cc:Work>
    </rdf:RDF>
  </metadata>
  <g
     inkscape:label="Layer 1"
     inkscape:groupmode="layer"
     id="layer1"
     transform="translate(-26.170733,-92.178362)">
    <g
       id="g4721"
       transform="matrix(1.2162875,0,0,1.1976603,-20.833537,60.141084)">
      <g
         id="g4695"
         style="fill:#d4aa00;stroke:none;stroke-opacity:1"
         transform="translate(0.33408685,-1.8708868)">
        <g
           id="g4708">
          <path
             style="fill:#deac00;fill-opacity:1;stroke:none;stroke-width:0.26458332;stroke-opacity:1"
             d="m 101.66211,28.621094 c -12.044968,-0.05161 -24.529431,6.141846 -30.029298,17.177734 -9.7855,-2.079199 -19.264303,5.986971 -20.777343,15.164063 -11.70327,3.390839 -16.906041,19.503373 -8.183594,28.490234 5.138277,5.8755 13.794741,8.134817 21.224609,5.9375 3.75779,9.748995 16.094028,14.785685 25.582032,10.384765 10.568484,9.79601 28.670564,9.80038 39.275394,0.0566 12.28424,10.61516 33.86561,4.39781 38.22265,-11.357421 C 170.38447,84.450291 165.43122,72.927288 156.7793,67.496094 157.05758,53.830362 143.95859,42.31032 130.50977,43.507812 124.48305,33.788093 112.87199,28.58718 101.66211,28.621094 Z"
             id="ellipse4693"
             inkscape:connector-curvature="0" />
        </g>
      </g>
      <g
         transform="translate(0.33408685,-1.8708868)"
         style="stroke:none;stroke-opacity:1"
         id="g4663">
        <path
           style="fill:#373e48;stroke:none;stroke-width:0.26458332;stroke-opacity:1"
           d="M 132.48066,57.032368 A 30.757813,26.411085 0 0 1 101.72285,83.443453 30.757813,26.411085 0 0 1 70.965034,57.032368 30.757813,26.411085 0 0 1 101.72285,30.621283 30.757813,26.411085 0 0 1 132.48066,57.032368 Z"
           id="path4634"
           inkscape:connector-curvature="0" />
        <path
           style="fill:#373e48;stroke:none;stroke-width:0.26458332;stroke-opacity:1"
           d="M 154.78124,67.568451 A 22.773064,22.111607 0 0 1 132.00818,89.680058 22.773064,22.111607 0 0 1 109.23512,67.568451 22.773064,22.111607 0 0 1 132.00818,45.456844 22.773064,22.111607 0 0 1 154.78124,67.568451 Z"
           id="path4636"
           inkscape:connector-curvature="0" />
        <path
           style="fill:#373e48;stroke:none;stroke-width:0.26458332;stroke-opacity:1"
           d="M 166.02603,87.601196 A 22.064362,21.544643 0 0 1 143.96167,109.14584 22.064362,21.544643 0 0 1 121.89731,87.601196 22.064362,21.544643 0 0 1 143.96167,66.056553 22.064362,21.544643 0 0 1 166.02603,87.601196 Z"
           id="path4638"
           inkscape:connector-curvature="0" />
        <path
           style="fill:#373e48;stroke:none;stroke-width:0.26458332;stroke-opacity:1"
           d="M 84.383185,63.268974 A 15.686011,15.733259 0 0 1 68.697174,79.002234 15.686011,15.733259 0 0 1 53.011163,63.268974 15.686011,15.733259 0 0 1 68.697174,47.535715 15.686011,15.733259 0 0 1 84.383185,63.268974 Z"
           id="path4646"
           inkscape:connector-curvature="0" />
        <path
           style="fill:#373e48;stroke:none;stroke-width:0.26458332;stroke-opacity:1"
           d="M 75.878717,77.962791 A 17.812128,16.252975 0 0 1 58.066589,94.215767 17.812128,16.252975 0 0 1 40.254461,77.962791 17.812128,16.252975 0 0 1 58.066589,61.709816 17.812128,16.252975 0 0 1 75.878717,77.962791 Z"
           id="path4648"
           inkscape:connector-curvature="0" />
        <path
           style="fill:#373e48;stroke:none;stroke-width:0.26458332;stroke-opacity:1"
           d="M 99.313238,87.790176 A 17.481398,17.575893 0 0 1 81.831841,105.36607 17.481398,17.575893 0 0 1 64.350443,87.790176 17.481398,17.575893 0 0 1 81.831841,70.214283 17.481398,17.575893 0 0 1 99.313238,87.790176 Z"
           id="path4650"
           inkscape:connector-curvature="0" />
        <path
           style="fill:#373e48;stroke:none;stroke-width:0.26458332;stroke-opacity:1"
           d="M 133.52008,91.144714 A 24.379465,19.985491 0 0 1 109.14062,111.13021 24.379465,19.985491 0 0 1 84.761152,91.144714 24.379465,19.985491 0 0 1 109.14062,71.159224 24.379465,19.985491 0 0 1 133.52008,91.144714 Z"
           id="path4652"
           inkscape:connector-curvature="0" />
      </g>
    </g>
    <g
       aria-label="0"
       transform="matrix(0.3218094,0,0,0.31688095,-1.9058471,-5.4536157)"
       style="font-style:normal;font-weight:normal;font-size:40px;line-height:1.25;font-family:sans-serif;letter-spacing:0px;word-spacing:0px;fill:#7e3994;fill-opacity:1;stroke:none"
       id="flowRoot4723-47-4-2-1-1-6" />
    <g
       aria-label="!!
"
       transform="matrix(1.7132132,0,0,1.7233375,-178.06033,-159.10448)"
       style="font-style:normal;font-weight:normal;font-size:40px;line-height:1.25;font-family:sans-serif;letter-spacing:0px;word-spacing:0px;fill:#a76000;fill-opacity:1;stroke:none"
       id="flowRoot2268">
      <path
         d="m 156.65436,175.92077 -0.62501,-9.3556 q -0.17578,-2.73441 -0.17578,-3.92584 0,-1.62111 0.83985,-2.51956 0.85939,-0.91799 2.24613,-0.91799 1.67971,0 2.24613,1.17189 0.56641,1.15237 0.56641,3.3399 0,1.28908 -0.13672,2.61722 l -0.83986,9.62904 q -0.13672,1.71878 -0.58594,2.63676 -0.44923,0.91798 -1.4844,0.91798 -1.0547,0 -1.46486,-0.87892 -0.41017,-0.89845 -0.58595,-2.71488 z m 2.168,12.85175 q -1.19142,0 -2.08987,-0.76173 -0.87892,-0.78126 -0.87892,-2.168 0,-1.21096 0.83985,-2.05081 0.85939,-0.85939 2.08988,-0.85939 1.23048,0 2.08987,0.85939 0.87892,0.83985 0.87892,2.05081 0,1.3672 -0.87892,2.14846 -0.87892,0.78127 -2.05081,0.78127 z"
         style="font-style:normal;font-variant:normal;font-weight:normal;font-stretch:normal;font-size:40.00056839px;font-family:'Arial Rounded MT Bold';-inkscape-font-specification:'Arial Rounded MT Bold, Normal';font-variant-ligatures:normal;font-variant-caps:normal;font-variant-numeric:normal;font-feature-settings:normal;text-align:start;writing-mode:lr-tb;text-anchor:start"
         id="path2285" />
      <path
         d="m 170.01393,175.92077 -0.62501,-9.3556 q -0.17579,-2.73441 -0.17579,-3.92584 0,-1.62111 0.83986,-2.51956 0.85939,-0.91799 2.24612,-0.91799 1.67972,0 2.24613,1.17189 0.56641,1.15237 0.56641,3.3399 0,1.28908 -0.13672,2.61722 l -0.83985,9.62904 q -0.13672,1.71878 -0.58595,2.63676 -0.44922,0.91798 -1.48439,0.91798 -1.05471,0 -1.46487,-0.87892 -0.41016,-0.89845 -0.58594,-2.71488 z m 2.168,12.85175 q -1.19143,0 -2.08988,-0.76173 -0.87892,-0.78126 -0.87892,-2.168 0,-1.21096 0.83986,-2.05081 0.85939,-0.85939 2.08987,-0.85939 1.23049,0 2.08988,0.85939 0.87891,0.83985 0.87891,2.05081 0,1.3672 -0.87891,2.14846 -0.87892,0.78127 -2.05081,0.78127 z"
         style="font-style:normal;font-variant:normal;font-weight:normal;font-stretch:normal;font-size:40.00056839px;font-family:'Arial Rounded MT Bold';-inkscape-font-specification:'Arial Rounded MT Bold, Normal';font-variant-ligatures:normal;font-variant-caps:normal;font-variant-numeric:normal;font-feature-settings:normal;text-align:start;writing-mode:lr-tb;text-anchor:start"
         id="path2287" />
    </g>
    <text
       xml:space="preserve"
       style="font-style:normal;font-weight:normal;font-size:10.58333302px;line-height:1.25;font-family:sans-serif;letter-spacing:0px;word-spacing:0px;fill:#000000;fill-opacity:1;stroke:none;stroke-width:0.26458332"
       x="85.512993"
       y="132.72787"
       id="text2280"><tspan
         sodipodi:role="line"
         id="tspan2278"
         x="85.512993"
         y="142.38338"
         style="stroke-width:0.26458332" /></text>
  </g>
</svg>
